<?xml version="1.0" standalone="no"?>
<!DOCTYPE svg PUBLIC "-//W3C//DTD SVG 20010904//EN"
 "http://www.w3.org/TR/2001/REC-SVG-20010904/DTD/svg10.dtd">
<svg version="1.0" xmlns="http://www.w3.org/2000/svg"
 width="1281.000000pt" height="901.000000pt" viewBox="0 0 1281.000000 901.000000"
 preserveAspectRatio="xMidYMid meet">

<g transform="translate(0.000000,901.000000) scale(0.100000,-0.100000)"
fill="#000000" stroke="none">
<path d="M10 4505 l0 -4505 6398 2 6397 3 0 4500 0 4500 -6397 2 -6398 2 0
-4504z m922 1404 l3 -441 450 441 450 441 221 0 221 0 -161 -158 c-88 -87
-277 -271 -419 -407 -141 -137 -256 -252 -255 -256 2 -4 127 -138 278 -299
196 -209 277 -288 283 -278 4 7 154 324 332 703 l323 690 189 3 188 2 413
-852 c226 -470 412 -857 412 -861 0 -4 -81 -6 -181 -5 l-180 3 -67 142 -67
143 -506 0 -505 0 -52 -114 c-29 -62 -52 -119 -52 -126 0 -8 7 -22 17 -32 16
-17 8 -18 -215 -18 l-230 0 -318 329 -317 329 -128 -121 -128 -122 -1 -207 0
-208 -175 0 -175 0 0 860 0 860 175 0 175 0 2 -441z m3247 -29 c139 -258 259
-477 265 -486 11 -14 26 9 102 152 50 93 166 312 260 486 l169 318 198 0 199
0 -20 -32 c-11 -18 -178 -309 -371 -646 l-351 -612 0 -215 0 -215 -175 0 -175
0 0 215 0 214 -232 398 c-127 219 -256 441 -286 493 -121 210 -195 337 -214
368 l-20 32 199 0 198 0 254 -470z m2306 -87 c148 -307 305 -631 348 -721 l80
-163 30 37 c48 58 115 84 217 84 127 -1 212 -47 246 -135 40 -105 -2 -202
-110 -255 -63 -31 -67 -32 -153 -25 -48 3 -173 10 -276 13 l-188 7 -67 142
-67 143 -506 0 -505 0 -65 -142 -65 -143 -183 -3 c-172 -2 -183 -1 -178 15 3
10 172 374 377 808 205 435 383 814 395 843 l24 52 188 0 188 0 270 -557z
m1315 -303 l0 -860 -175 0 -175 0 0 860 0 860 175 0 175 0 0 -860z m946 585
c289 -151 529 -275 534 -275 6 0 10 107 10 275 l0 275 175 0 175 0 0 -860 0
-860 -175 0 -175 0 -2 396 -3 397 -535 278 -535 279 -3 -675 -2 -675 -175 0
-175 0 0 860 0 860 181 0 181 0 524 -275z m-6887 -1500 c149 -21 240 -49 367
-110 87 -42 127 -69 188 -126 43 -40 93 -96 112 -123 l34 -51 0 213 0 212 175
0 175 0 0 -517 c0 -422 3 -530 15 -581 52 -220 216 -334 480 -335 271 -1 425
101 493 326 13 43 16 138 19 580 l5 527 169 0 169 0 0 -552 c0 -629 -1 -635
-76 -787 -93 -189 -265 -316 -510 -378 -54 -13 -112 -17 -264 -17 -178 0 -203
2 -291 26 -251 68 -428 217 -510 431 l-22 57 -48 -78 c-113 -185 -321 -323
-573 -382 -138 -32 -263 -40 -651 -40 l-375 0 0 860 0 860 408 0 c305 0 433
-4 511 -15z m3115 -295 c170 -170 311 -310 315 -310 3 0 143 140 309 310 l304
310 179 0 179 0 0 -860 0 -860 -175 0 -175 0 -2 618 -3 617 -309 -298 -309
-298 -41 38 c-23 22 -164 157 -313 302 l-273 263 0 -621 0 -621 -175 0 -175 0
0 860 0 860 178 0 178 0 308 -310z m2866 160 l0 -150 -560 0 -560 0 0 -175 0
-175 495 0 495 0 0 -140 0 -140 -495 0 -495 0 0 -240 0 -240 570 0 570 0 0
705 0 705 181 0 181 0 524 -275 c289 -151 529 -275 534 -275 6 0 10 107 10
275 l0 275 175 0 175 0 0 -860 0 -860 -175 0 -175 0 -2 396 -3 397 -535 278
-535 279 -3 -675 -2 -675 -920 0 -920 0 0 860 0 860 735 0 735 0 0 -150z
m-3500 -1760 l0 -150 -317 -2 -318 -3 -3 -707 -2 -708 -170 0 -170 0 -2 708
-3 707 -317 3 -318 2 0 150 0 150 810 0 810 0 0 -150z m1089 -132 c75 -156
236 -487 357 -737 l219 -454 3 737 2 737 553 -4 c533 -3 555 -4 637 -25 219
-58 350 -166 426 -350 l24 -57 0 218 0 217 175 0 175 0 2 -686 3 -687 321 684
321 684 189 3 189 2 407 -842 c224 -464 410 -851 414 -861 6 -16 -7 -17 -175
-17 l-180 0 -70 145 -70 145 -504 0 -504 0 -65 -143 -65 -142 -495 -3 -496 -2
-161 245 -162 245 -269 0 -270 0 0 -245 0 -245 -301 0 -300 0 -70 145 -69 145
-503 0 -504 0 -66 -142 -67 -143 -186 -3 c-102 -1 -183 1 -181 5 3 5 179 379
392 833 213 454 393 837 401 853 l15 27 185 0 185 0 138 -282z"/>
<path d="M2836 5960 c-8 -19 -89 -195 -180 -390 l-165 -355 361 -3 c199 -1
363 -1 365 1 2 3 -65 148 -148 323 -83 175 -167 351 -185 389 l-33 70 -15 -35z"/>
<path d="M6016 5960 c-8 -19 -89 -195 -180 -390 l-165 -355 361 -3 c199 -1
363 -1 365 1 2 3 -65 148 -148 323 -83 175 -167 351 -185 389 l-33 70 -15 -35z"/>
<path d="M1290 3730 l0 -562 258 5 c221 4 268 7 335 25 219 60 352 198 392
408 52 271 -48 506 -259 609 -127 62 -163 68 -458 72 l-268 5 0 -562z"/>
<path d="M6360 2215 l0 -315 283 0 c385 0 476 18 566 109 57 57 81 122 81 215
0 91 -15 138 -63 192 -88 100 -156 114 -559 114 l-308 0 0 -315z"/>
<path d="M4927 2078 c-98 -209 -176 -383 -174 -385 2 -2 167 -2 365 -1 l362 3
-182 383 c-101 210 -185 382 -189 382 -3 0 -85 -172 -182 -382z"/>
<path d="M8658 2078 l-177 -383 361 -3 c199 -1 363 -1 365 1 2 2 -53 123 -123
268 -69 145 -151 317 -181 382 -31 64 -59 117 -62 117 -4 0 -86 -172 -183
-382z"/>
<path d="M7628 2010 c-39 -124 -155 -253 -278 -312 -38 -18 -67 -38 -65 -44 2
-6 83 -129 182 -273 l178 -262 3 235 c1 130 1 343 0 473 l-3 237 -17 -54z"/>
</g>
</svg>
